<svg width="91" height="19" viewBox="0 0 91 19" fill="none" xmlns="http://www.w3.org/2000/svg">
<path d="M24.5683 18.7221C24.2401 18.5467 23.9716 18.2983 23.7926 17.9767C23.5987 17.6552 23.5092 17.3044 23.5092 16.9098C23.5092 16.5152 23.5987 16.1644 23.7926 15.8429C23.9865 15.5214 24.2401 15.2729 24.5683 15.0975C24.8964 14.9222 25.2694 14.8345 25.687 14.8345C26.0003 14.8345 26.2837 14.8783 26.5373 14.9806C26.8058 15.0829 27.0147 15.2291 27.2086 15.4191L26.9252 15.6968C26.597 15.3752 26.1942 15.2145 25.687 15.2145C25.3589 15.2145 25.0605 15.2875 24.792 15.4337C24.5235 15.5798 24.3147 15.7845 24.1506 16.0475C24.0014 16.3106 23.9268 16.5883 23.9268 16.9098C23.9268 17.2313 24.0014 17.5237 24.1506 17.7721C24.2998 18.0352 24.5086 18.2252 24.792 18.3859C25.0605 18.5321 25.3589 18.6052 25.687 18.6052C26.1942 18.6052 26.597 18.4444 26.9252 18.1083L27.2086 18.3859C27.0296 18.5759 26.8058 18.7221 26.5373 18.839C26.2688 18.9559 25.9854 18.9998 25.6721 18.9998C25.2694 18.9998 24.8964 18.9121 24.5683 18.7221Z" fill="#5E5E5E"/>
<path d="M31.4749 18.9555L30.5202 17.6401C30.4158 17.6548 30.2964 17.6548 30.192 17.6548H29.0732V18.9555H28.6257V14.8633H30.192C30.729 14.8633 31.1467 14.9948 31.4451 15.2433C31.7434 15.4917 31.8926 15.8279 31.8926 16.2663C31.8926 16.5879 31.8031 16.8509 31.639 17.0702C31.4749 17.2894 31.2362 17.4502 30.9379 17.5525L31.9522 18.9555H31.4749ZM31.1318 17.0263C31.3556 16.8509 31.46 16.6025 31.46 16.2663C31.46 15.9302 31.3556 15.6817 31.1318 15.5063C30.908 15.331 30.5948 15.2433 30.192 15.2433H29.0882V17.2894H30.192C30.5948 17.304 30.908 17.2017 31.1318 17.0263Z" fill="#5E5E5E"/>
<path d="M34.7865 17.552V18.9697H34.3539V17.552L32.6832 14.8774H33.1606L34.5926 17.172L36.0246 14.8774H36.4722L34.7865 17.552Z" fill="#5E5E5E"/>
<path d="M40.3356 15.2432C40.6339 15.4917 40.7831 15.8278 40.7831 16.2663C40.7831 16.7047 40.6339 17.0409 40.3356 17.2894C40.0372 17.5378 39.6195 17.6547 39.0825 17.6547H37.9637V18.9409H37.5162V14.8486H39.0825C39.6195 14.8779 40.0372 14.9948 40.3356 15.2432ZM40.0223 17.0263C40.2461 16.8509 40.3505 16.6024 40.3505 16.2809C40.3505 15.9448 40.2461 15.6963 40.0223 15.5209C39.7985 15.3455 39.4853 15.2579 39.0825 15.2579H37.9787V17.304H39.0825C39.4853 17.2894 39.7985 17.2017 40.0223 17.0263Z" fill="#5E5E5E"/>
<path d="M42.8864 15.2433H41.4246V14.8633H44.7958V15.2433H43.3339V18.9555H42.8864V15.2433Z" fill="#5E5E5E"/>
<path d="M46.6157 18.7216C46.2726 18.5462 46.019 18.2977 45.8251 17.9762C45.6311 17.6547 45.5416 17.3039 45.5416 16.9093C45.5416 16.5147 45.6311 16.1639 45.8251 15.8424C46.019 15.5209 46.2726 15.2724 46.6157 15.097C46.9587 14.9216 47.3317 14.8193 47.7344 14.8193C48.1521 14.8193 48.525 14.907 48.8532 15.0824C49.1814 15.2578 49.4499 15.5062 49.6289 15.8278C49.8228 16.1493 49.9123 16.5001 49.9123 16.8947C49.9123 17.2893 49.8228 17.64 49.6289 17.9616C49.435 18.2831 49.1814 18.5316 48.8532 18.707C48.525 18.8823 48.1521 18.97 47.7344 18.97C47.3317 18.9993 46.9587 18.9116 46.6157 18.7216ZM48.6295 18.3854C48.898 18.2393 49.1068 18.0347 49.256 17.7716C49.4051 17.5085 49.4797 17.2308 49.4797 16.9093C49.4797 16.5878 49.4051 16.2955 49.256 16.047C49.1068 15.7839 48.898 15.5793 48.6295 15.4332C48.3609 15.287 48.0626 15.2139 47.7344 15.2139C47.4063 15.2139 47.1079 15.287 46.8394 15.4332C46.5709 15.5793 46.3621 15.7839 46.2129 16.047C46.0637 16.3101 45.9891 16.5878 45.9891 16.9093C45.9891 17.2308 46.0637 17.5231 46.2129 17.7716C46.3621 18.0347 46.5709 18.2393 46.8394 18.3854C47.1079 18.5316 47.4063 18.6046 47.7344 18.6046C48.0626 18.6046 48.3759 18.5316 48.6295 18.3854Z" fill="#5E5E5E"/>
<path d="M56.3863 18.5897V18.9697H53.4327V14.8774H56.2968V15.2574H53.8803V16.7043H56.0432V17.0697H53.8803V18.5897H56.3863Z" fill="#5E5E5E"/>
<path d="M60.4586 18.9555L59.1161 17.1579L57.7735 18.9555H57.2664L58.8476 16.8509L57.3708 14.8633H57.878L59.131 16.5294L60.384 14.8633H60.8614L59.3846 16.8363L60.9807 18.9555H60.4586Z" fill="#5E5E5E"/>
<path d="M62.7709 18.7216C62.4427 18.5462 62.1742 18.2978 61.9952 17.9762C61.8013 17.6547 61.7118 17.3039 61.7118 16.9093C61.7118 16.5147 61.8013 16.164 61.9952 15.8424C62.1891 15.5209 62.4427 15.2724 62.7709 15.0971C63.0991 14.9217 63.472 14.834 63.8897 14.834C64.2029 14.834 64.4864 14.8778 64.7399 14.9801C65.0084 15.0824 65.2173 15.2286 65.4112 15.4186L65.1278 15.6963C64.7996 15.3747 64.3968 15.214 63.8897 15.214C63.5615 15.214 63.2632 15.2871 62.9946 15.4332C62.7261 15.5794 62.5173 15.784 62.3532 16.047C62.2041 16.3101 62.1295 16.5878 62.1295 16.9093C62.1295 17.2309 62.2041 17.5232 62.3532 17.7716C62.5024 18.0347 62.7112 18.2247 62.9946 18.3855C63.2781 18.5462 63.5615 18.6047 63.8897 18.6047C64.3968 18.6047 64.7996 18.4439 65.1278 18.1078L65.4112 18.3855C65.2322 18.5755 65.0084 18.7216 64.7399 18.8385C64.4714 18.9554 64.188 18.9993 63.8748 18.9993C63.472 18.9993 63.0991 18.9116 62.7709 18.7216Z" fill="#5E5E5E"/>
<path d="M70.3188 14.8774V18.9697H69.8862V17.0843H67.2758V18.9697H66.8282V14.8774H67.2758V16.7043H69.8862V14.8774H70.3188Z" fill="#5E5E5E"/>
<path d="M74.7642 17.8735H72.4371L71.93 18.9697H71.4675L73.3769 14.8774H73.8095L75.7189 18.9697H75.2565L74.7642 17.8735ZM74.6001 17.5228L73.6007 15.3305L72.6012 17.5228H74.6001Z" fill="#5E5E5E"/>
<path d="M80.3879 14.8774V18.9697H80.0299L77.3449 15.652V18.9697H76.8973V14.8774H77.2554L79.9404 18.1951V14.8774H80.3879Z" fill="#5E5E5E"/>
<path d="M85.1613 16.924H85.579V18.4878C85.3851 18.6486 85.1464 18.7801 84.8928 18.8678C84.6243 18.9555 84.3409 18.9993 84.0574 18.9993C83.6398 18.9993 83.2668 18.9116 82.9387 18.7363C82.6105 18.5609 82.342 18.3124 82.1481 17.9909C81.9541 17.6693 81.8646 17.3186 81.8646 16.924C81.8646 16.5294 81.9541 16.1786 82.1481 15.8571C82.342 15.5355 82.5956 15.2871 82.9387 15.1117C83.2668 14.9363 83.6547 14.8486 84.0723 14.8486C84.3856 14.8486 84.684 14.8925 84.9525 14.9948C85.221 15.0971 85.4447 15.2432 85.6237 15.4332L85.3552 15.7109C85.027 15.3894 84.6094 15.2286 84.1022 15.2286C83.7591 15.2286 83.4608 15.3017 83.1922 15.4479C82.9237 15.594 82.7 15.7986 82.5508 16.0617C82.4016 16.3248 82.3121 16.6024 82.3121 16.924C82.3121 17.2455 82.3867 17.5378 82.5508 17.7863C82.7 18.0493 82.9237 18.2393 83.1922 18.4001C83.4608 18.5463 83.7591 18.6193 84.1022 18.6193C84.5348 18.6193 84.8928 18.517 85.1911 18.2978V16.924H85.1613Z" fill="#5E5E5E"/>
<path d="M90.2481 18.5897V18.9697H87.2946V14.8774H90.1586V15.2574H87.7421V16.7043H89.905V17.0697H87.7421V18.5897H90.2481Z" fill="#5E5E5E"/>
<path d="M45.2583 0H47.9583V11.4144H45.2583V0Z" fill="#5E5E5E"/>
<path d="M39.8285 0V6.92756L34.0556 0H31.833H31.3855V6.29911C31.3855 7.36601 31.1617 8.12599 30.7142 8.62291C30.2667 9.11982 29.6253 9.35366 28.7899 9.35366C27.0595 9.35366 26.2093 8.34522 26.2093 6.29911V0H23.5093V6.40141C23.5093 8.06753 23.9866 9.36828 24.8966 10.2744C25.8214 11.1805 27.1192 11.6336 28.7899 11.6336C30.4606 11.6336 31.7435 11.1659 32.6833 10.2744C33.6081 9.36828 34.0706 8.09676 34.0706 6.40141V4.00454L34.5181 4.50145L40.276 11.4144H42.4987V0H39.8285Z" fill="#5E5E5E"/>
<path d="M17.5275 0H1.86463C0.835355 0 0 0.818445 0 1.79766V17.1727C0 18.1812 0.835355 18.9996 1.86463 18.9996H17.5275C18.5568 18.9996 19.3922 18.1812 19.3922 17.1727V1.79766C19.3922 0.818445 18.5568 0 17.5275 0ZM18.0049 9.4852H9.51708V17.8012H9.12924C9.12924 13.4167 5.51931 9.86519 1.02928 9.86519V9.4852H9.51708V1.16921H9.90493C9.90493 5.55374 13.5149 9.1052 18.0049 9.1052V9.4852Z" fill="#5E5E5E"/>
<path d="M52.0456 11.0636C51.2699 10.7859 50.6583 10.4352 50.2406 9.99672L50.7179 9.07597C51.1356 9.4852 51.6876 9.80673 52.3887 10.0552C53.0898 10.3036 53.8058 10.4352 54.5367 10.4352C55.566 10.4352 56.3417 10.2452 56.8489 9.89442C57.356 9.54366 57.6245 9.04674 57.6245 8.44752C57.6245 7.97984 57.4903 7.62908 57.2069 7.35139C56.9234 7.07371 56.5953 6.88371 56.1776 6.72294C55.7599 6.59141 55.208 6.41603 54.477 6.25526C53.6119 6.03603 52.9257 5.84604 52.3887 5.62681C51.8666 5.43681 51.4489 5.1299 51.0461 4.72067C50.6881 4.31145 50.4942 3.77069 50.4942 3.05455C50.4942 2.48457 50.6583 1.95842 50.9715 1.50535C51.2848 1.03767 51.7472 0.657679 52.3887 0.394608C53.0301 0.131536 53.8058 0 54.7456 0C55.4168 0 56.0583 0.0876906 56.6997 0.277687C57.3411 0.467683 57.8632 0.686909 58.3406 1.00844L57.9229 1.95842C57.4455 1.65151 56.9234 1.41766 56.3715 1.2569C55.8196 1.09613 55.2826 1.00844 54.7605 1.00844C53.761 1.00844 52.9853 1.19844 52.4782 1.57843C51.971 1.95842 51.7025 2.45534 51.7025 3.05455C51.7025 3.52224 51.8367 3.873 52.1202 4.15069C52.4036 4.42837 52.7616 4.6476 53.1793 4.77914C53.5969 4.91067 54.1787 5.08605 54.8798 5.24682C55.7152 5.46604 56.4163 5.65604 56.9384 5.84604C57.4605 6.03603 57.908 6.34295 58.2809 6.75217C58.6389 7.1614 58.8328 7.70215 58.8328 8.38906C58.8328 8.95905 58.6687 9.4852 58.3555 9.93826C58.0422 10.4059 57.55 10.7859 56.9085 11.049C56.2671 11.3267 55.4616 11.4582 54.5218 11.4582C53.6566 11.4728 52.8511 11.3413 52.0456 11.0636Z" fill="#5E5E5E"/>
<path d="M63.5317 1.09633H59.4742V0.0878906H68.7974V1.12556H64.74V11.4H63.5168V1.09633H63.5317Z" fill="#5E5E5E"/>
<path d="M78.9112 10.3331V11.3707H70.7665V0.0878906H78.6725V1.12556H71.9897V5.1301H77.9416V6.13854H71.9897V10.3331H78.9112Z" fill="#5E5E5E"/>
<path d="M88.846 11.3707L85.1167 6.41623L81.4173 11.3707H80.03L84.4306 5.55394L80.3135 0.0878906H81.7007L85.1764 4.69165L88.6223 0.0878906H89.935L85.8477 5.53932L90.2482 11.3707H88.846Z" fill="#5E5E5E"/>
</svg>
